<?xml version="1.0" encoding="UTF-8"?>
<svg version="1.1" xmlns="http://www.w3.org/2000/svg" width="300" height="300">
<path d="M0 0 C5.05901241 3.03540745 9.48567952 6.78116424 14 10.5625 C19.35800453 15.01687742 24.74653329 19.41405459 30.25 23.6875 C34.21604951 26.77064006 38.11766011 29.90596405 41.93530273 33.17163086 C43.54939109 34.55129498 45.1763563 35.91454142 46.8046875 37.27734375 C48.95660298 39.08497888 51.02446893 40.95252323 53.0703125 42.87890625 C59.34964291 48.53821458 63.86236186 50.72738578 72.4375 50.75 C73.57384888 50.6893335 73.57384888 50.6893335 74.7331543 50.62744141 C78.89829504 50.47493986 81.30525291 50.72875604 84.484375 53.578125 C87.34415194 56.88785834 87.61020606 59.63421456 87.8125 64 C88.71684284 71.32563146 92.12743779 74.794341 97.8125 79.25 C100.10971837 81.00027322 102.42684333 82.71221497 104.77392578 84.39501953 C108.01070879 86.72871239 111.12501675 89.20745348 114.25 91.6875 C115.1013855 92.35120605 115.1013855 92.35120605 115.9699707 93.02832031 C120.45403755 96.52500477 124.78812443 100.17759592 129.10644531 103.87573242 C132.993062 107.18853759 136.96798631 110.36634236 141 113.5 C145.84337492 117.27023898 150.61470029 121.11195876 155.3125 125.0625 C155.87001953 125.52785156 156.42753906 125.99320312 157.00195312 126.47265625 C161.8375466 130.57041012 161.8375466 130.57041012 162.3125 134.75 C161.66269236 141.50799949 155.66301358 146.95540104 151.4375 152 C146.98311916 157.35800865 142.58605571 162.74661599 138.3125 168.25 C134.37159217 173.31760051 130.29135207 178.23832828 126.11767578 183.11523438 C122.39942563 187.47973614 118.85487713 191.96247739 115.3359375 196.48828125 C111.0595134 201.96933186 106.63406491 207.3211285 102.19873047 212.67382812 C98.50067325 217.14759518 94.87521363 221.66789721 91.3125 226.25 C87.37476516 231.31280194 83.29914838 236.22992493 79.12866211 241.10205078 C75.2869096 245.610893 71.62139727 250.24328981 67.97998047 254.91455078 C64.53082385 259.33689303 61.00938509 263.69289768 57.4453125 268.0234375 C55.01858393 270.97737866 52.60550517 273.94193442 50.19628906 276.91015625 C48.5202385 278.97506598 46.84217367 281.03832729 45.1640625 283.1015625 C43.19228479 285.52736015 41.22823042 287.95893721 39.2734375 290.3984375 C38.48195312 291.38070313 37.69046875 292.36296875 36.875 293.375 C36.19179687 294.22835938 35.50859375 295.08171875 34.8046875 295.9609375 C32.21951575 298.88184584 30.58195637 299.93290385 26.6796875 300.3828125 C22.21929469 299.91878013 20.56251543 298.71072227 17.125 295.875 C16.579646 295.43341553 16.03429199 294.99183105 15.47241211 294.53686523 C13.63399326 293.04114593 11.81728416 291.52130651 10 290 C8.62478048 288.8671741 7.24844108 287.73570659 5.87109375 286.60546875 C3.71245075 284.83217476 1.55568475 283.05685147 -0.59521484 281.27416992 C-6.46167841 276.41386145 -12.42599586 271.69071609 -18.4375 267.01171875 C-21 265 -21 265 -22 264 C-23.39672746 263.96426324 -24.79505367 263.98694661 -26.19140625 264.03515625 C-40.18776554 264.19914021 -40.18776554 264.19914021 -45.140625 260.921875 C-48.22213862 257.21962483 -50.16258791 254.85915744 -49.73046875 249.91796875 C-49.48941406 248.95503906 -49.24835938 247.99210938 -49 247 C-48.7215625 245.824375 -48.7215625 245.824375 -48.4375 244.625 C-48.293125 244.08875 -48.14875 243.5525 -48 243 C-54.48360152 237.43185716 -61.00278443 231.93479359 -67.75 226.6875 C-73.02746346 222.58124229 -78.22117834 218.38543017 -83.375 214.125 C-84.08793213 213.5357373 -84.80086426 212.94647461 -85.53540039 212.33935547 C-86.24946045 211.74912598 -86.96352051 211.15889648 -87.69921875 210.55078125 C-96.77513416 203.04936393 -105.90039754 195.61370556 -115.1875 188.375 C-119.93245046 184.67342406 -124.59219007 180.8860015 -129.1875 177 C-129.72850342 176.54286621 -130.26950684 176.08573242 -130.8269043 175.61474609 C-137.88117516 169.60492645 -137.88117516 169.60492645 -138.6875 165.5 C-138.51483413 159.33007287 -134.00019377 154.36968958 -130 150 C-129.34 150 -128.68 150 -128 150 C-127.77183594 149.47277344 -127.54367188 148.94554687 -127.30859375 148.40234375 C-125.55887258 145.19016906 -123.33445394 142.41346368 -121.0625 139.5625 C-120.57813477 138.94995361 -120.09376953 138.33740723 -119.59472656 137.70629883 C-115.77951645 132.91019302 -111.84445057 128.22372442 -107.86352539 123.56494141 C-104.0981618 119.14962463 -100.4979095 114.62902697 -97 110 C-96.48955139 109.40093842 -95.97910278 108.80187683 -95.45318604 108.18466187 C-93.77633403 105.66374951 -93.52856668 104.14189365 -93.31152344 101.14306641 C-93.23424011 100.18171783 -93.15695679 99.22036926 -93.07733154 98.22988892 C-93.00540588 97.1975412 -92.93348022 96.16519348 -92.859375 95.1015625 C-92.67426484 92.90876207 -92.48803194 90.71605618 -92.30078125 88.5234375 C-92.02031634 85.07239292 -91.74973512 81.62134428 -91.49951172 78.16796875 C-91.25204972 74.830331 -90.96473977 71.49798106 -90.671875 68.1640625 C-90.5761319 66.62161362 -90.5761319 66.62161362 -90.47845459 65.04800415 C-90.02633384 60.18109597 -89.50779566 56.81759592 -85.90307617 53.33886719 C-82.09103102 50.61942344 -78.47239926 50.21302506 -73.87890625 50.4140625 C-73.13414536 50.42255219 -72.38938446 50.43104187 -71.62205505 50.43978882 C-69.26733268 50.47310183 -66.9161683 50.54832071 -64.5625 50.625 C-62.95643004 50.655129 -61.35030583 50.68249966 -59.74414062 50.70703125 C-55.82807781 50.77281795 -51.9146398 50.87616923 -48 51 C-47.59382446 50.12190674 -47.59382446 50.12190674 -47.17944336 49.22607422 C-46.00828238 47.01563212 -44.73529141 45.29431109 -43.12890625 43.3828125 C-42.56018799 42.70057617 -41.99146973 42.01833984 -41.40551758 41.31542969 C-40.79732178 40.59258789 -40.18912598 39.86974609 -39.5625 39.125 C-35.06385607 33.72685807 -30.62113022 28.30107847 -26.3125 22.75 C-22.63936739 18.03854279 -18.89966757 13.39161863 -15.0625 8.8125 C-14.38924683 8.00087402 -14.38924683 8.00087402 -13.70239258 7.17285156 C-9.51509156 2.22055525 -6.76515996 -0.94712239 0 0 Z " fill="#FCFDFD" transform="translate(138,0)"/>
<path d="M0 0 C11.16565121 8.2625819 21.97856578 16.93982083 32.67260742 25.80004883 C37.14660725 29.49873778 41.6675106 33.12434387 46.25 36.6875 C51.97998921 41.14579917 57.546225 45.7728076 63.0625 50.4921875 C64.5879899 51.79453393 66.116037 53.09441562 67.671875 54.36035156 C72.83669505 58.56291645 72.83669505 58.56291645 73.3125 62.75 C72.66269236 69.50799949 66.66301358 74.95540104 62.4375 80 C57.98311916 85.35800865 53.58605571 90.74661599 49.3125 96.25 C45.37159217 101.31760051 41.29135207 106.23832828 37.11767578 111.11523438 C33.39942563 115.47973614 29.85487713 119.96247739 26.3359375 124.48828125 C22.0595134 129.96933186 17.63406491 135.3211285 13.19873047 140.67382812 C9.50067325 145.14759518 5.87521363 149.66789721 2.3125 154.25 C-1.62523484 159.31280194 -5.70085162 164.22992493 -9.87133789 169.10205078 C-13.7130904 173.610893 -17.37860273 178.24328981 -21.02001953 182.91455078 C-24.46917615 187.33689303 -27.99061491 191.69289768 -31.5546875 196.0234375 C-33.98141607 198.97737866 -36.39449483 201.94193442 -38.80371094 204.91015625 C-40.4797615 206.97506598 -42.15782633 209.03832729 -43.8359375 211.1015625 C-45.80771521 213.52736015 -47.77176958 215.95893721 -49.7265625 218.3984375 C-50.51804688 219.38070312 -51.30953125 220.36296875 -52.125 221.375 C-53.14980469 222.65503906 -53.14980469 222.65503906 -54.1953125 223.9609375 C-56.78048425 226.88184584 -58.41804363 227.93290385 -62.3203125 228.3828125 C-66.78070531 227.91878013 -68.43748457 226.71072227 -71.875 223.875 C-72.69303101 223.21262329 -72.69303101 223.21262329 -73.52758789 222.53686523 C-75.36600674 221.04114593 -77.18271584 219.52130651 -79 218 C-80.37521952 216.8671741 -81.75155892 215.73570659 -83.12890625 214.60546875 C-85.28886604 212.83138306 -87.44660109 211.05494611 -89.59741211 209.26977539 C-94.88202174 204.88661216 -100.24687734 200.62099118 -105.71069336 196.46313477 C-108.34709903 194.43041977 -110.13182826 192.8022576 -112 190 C-111.22627548 190.0199855 -110.45255096 190.03997101 -109.65538025 190.06056213 C-102.34382341 190.24131337 -95.03335743 190.37812091 -87.72014523 190.46630955 C-83.96064991 190.51317574 -80.20300834 190.57667029 -76.44458008 190.67895508 C-72.81340576 190.77715191 -69.18400716 190.83063711 -65.55160713 190.85389519 C-64.1699382 190.87045529 -62.7883607 190.90279872 -61.40745354 190.95157051 C-53.45568321 191.36471856 -53.45568321 191.36471856 -46.55349731 188.0397644 C-43.87826879 184.73149882 -42.05848537 182.37440615 -41.875 178.0625 C-42.24625 177.051875 -42.6175 176.04125 -43 175 C-43.52647554 173.20998315 -44.04692715 171.41818751 -44.5625 169.625 C-45.03807613 168.08222194 -45.5160345 166.54016694 -46 165 C-47.010625 165.061875 -48.02125 165.12375 -49.0625 165.1875 C-54.62053116 164.92283185 -58.44377032 163.64035021 -62.3125 159.5625 C-66.35021642 153.43115285 -67.12396956 148.04553111 -67.12939453 140.71264648 C-67.13406235 138.85150208 -67.13406235 138.85150208 -67.13882446 136.95275879 C-67.13701564 135.5922035 -67.13500504 134.23164847 -67.1328125 132.87109375 C-67.1338305 131.43021621 -67.13517131 129.98933888 -67.1368103 128.54846191 C-67.13952092 124.65453995 -67.13502057 120.76065761 -67.12857056 116.86674118 C-67.12500161 114.43859488 -67.12338085 112.01045451 -67.12231445 109.58230591 C-67.10335814 74.71650252 -66.62182031 39.85967638 -66 5 C-61.12285387 4.16511965 -56.5590122 3.81688969 -51.625 3.8125 C-50.54992187 3.79413086 -50.54992187 3.79413086 -49.453125 3.77539062 C-40.04767183 3.7499246 -30.38087865 6.28598238 -23.171875 12.6015625 C-16.79100872 19.65918733 -13 28.44988466 -13 38 C-7.72 38 -2.44 38 3 38 C2.7834375 36.34613281 2.566875 34.69226563 2.34375 32.98828125 C-0.5521891 10.28707834 -0.5521891 10.28707834 0 0 Z " fill="#0097D8" transform="translate(227,72)"/>
<path d="M0 0 C1.04414062 0.00064453 2.08828125 0.00128906 3.1640625 0.00195312 C10.84343259 0.04671629 10.84343259 0.04671629 13.125 1.1875 C13.21851907 20.21570901 13.28901629 39.24387126 13.33224869 58.27226257 C13.35285748 67.10785615 13.38094581 75.94330678 13.42675781 84.77880859 C13.46667722 92.4815226 13.49244505 100.18413305 13.50135398 107.88694763 C13.50656012 111.96404849 13.51876106 116.04085314 13.54792023 120.11785889 C13.5751702 123.95922449 13.58342582 127.80017327 13.57743073 131.64162636 C13.5785267 133.0476642 13.58642372 134.45371669 13.6018219 135.85967064 C13.68371197 143.7258869 13.50884381 149.51983782 9.125 156.1875 C5.52346044 159.44603579 2.54874457 160.37747025 -2.125 161.125 C-4.67387386 161.48625788 -4.67387386 161.48625788 -6.875 162.1875 C-8.63068004 164.64498398 -8.63068004 164.64498398 -8.875 167.1875 C-12.80373527 165.48728938 -15.99093929 162.89698326 -19.3125 160.25 C-19.92867188 159.76273438 -20.54484375 159.27546875 -21.1796875 158.7734375 C-25.86486444 155.04637445 -30.43870183 151.20000714 -34.98706055 147.30810547 C-39.35236526 143.58856367 -43.83633925 140.04326206 -48.36328125 136.5234375 C-53.84433186 132.2470134 -59.1961285 127.82156491 -64.54882812 123.38623047 C-69.02260306 119.68816674 -73.54306557 116.06293902 -78.125 112.5 C-82.85091268 108.82089362 -87.48960544 105.05543878 -92.0625 101.1875 C-92.60358398 100.73028564 -93.14466797 100.27307129 -93.70214844 99.80200195 C-100.75614433 93.79258341 -100.75614433 93.79258341 -101.5625 89.6875 C-101.38983413 83.51757287 -96.87519377 78.55718958 -92.875 74.1875 C-92.215 74.1875 -91.555 74.1875 -90.875 74.1875 C-90.64683594 73.66027344 -90.41867188 73.13304687 -90.18359375 72.58984375 C-88.43387258 69.37766906 -86.20945394 66.60096368 -83.9375 63.75 C-83.45313477 63.13745361 -82.96876953 62.52490723 -82.46972656 61.89379883 C-78.65427363 57.09738777 -74.72118618 52.40844819 -70.73632812 47.75244141 C-67.49654713 43.95824058 -64.40452048 40.07977664 -61.41015625 36.08984375 C-59.69811039 33.96830092 -57.83082468 32.08418527 -55.875 30.1875 C-55.875 31.5075 -55.875 32.8275 -55.875 34.1875 C-50.595 34.1875 -45.315 34.1875 -39.875 34.1875 C-39.813125 32.57875 -39.75125 30.97 -39.6875 29.3125 C-38.85935949 20.48656412 -35.20549866 13.63180223 -28.69140625 7.65234375 C-19.93295294 0.58907495 -10.84719001 -0.1301115 0 0 Z " fill="#F2BD2D" transform="translate(100.875,75.8125)"/>
<path d="M0 0 C5.05901241 3.03540745 9.48567952 6.78116424 14 10.5625 C19.35800453 15.01687742 24.74653329 19.41405459 30.25 23.6875 C35.33221721 27.63833003 40.2647213 31.73082767 45.14819336 35.92407227 C49.64802056 39.76315833 54.302778 43.37441048 59.03930664 46.91625977 C60.37590297 47.92280159 61.69052399 48.95842006 63 50 C63 50.33 63 50.66 63 51 C26.37 51 -10.26 51 -48 51 C-46.4563514 47.91270281 -45.27793806 45.94002691 -43.12890625 43.3828125 C-42.56018799 42.70057617 -41.99146973 42.01833984 -41.40551758 41.31542969 C-40.79732178 40.59258789 -40.18912598 39.86974609 -39.5625 39.125 C-35.06385607 33.72685807 -30.62113022 28.30107847 -26.3125 22.75 C-22.63936739 18.03854279 -18.89966757 13.39161863 -15.0625 8.8125 C-14.38924683 8.00087402 -14.38924683 8.00087402 -13.70239258 7.17285156 C-9.51509156 2.22055525 -6.76515996 -0.94712239 0 0 Z " fill="#E94722" transform="translate(138,0)"/>
<path d="M0 0 C1.35109863 0.03927612 1.35109863 0.03927612 2.72949219 0.0793457 C3.70917969 0.09545898 4.68886719 0.11157227 5.69824219 0.12817383 C7.22191406 0.19101562 7.22191406 0.19101562 8.77636719 0.25512695 C9.80761719 0.27768555 10.83886719 0.30024414 11.90136719 0.32348633 C14.44450784 0.38235532 16.98469831 0.46452631 19.52636719 0.56762695 C15.40262374 6.17313503 11.1011302 11.59336565 6.65136719 16.94262695 C2.740503 21.66500571 -1.15928977 26.39156197 -4.97363281 31.19262695 C-13.7442294 42.20292525 -13.7442294 42.20292525 -16.47363281 43.56762695 C-20.54710386 43.9681361 -22.82359951 43.94377956 -26.40332031 41.87231445 C-27.86125 40.66961914 -27.86125 40.66961914 -29.34863281 39.44262695 C-29.89398682 39.00104248 -30.43934082 38.55945801 -31.0012207 38.10449219 C-32.83963955 36.60877288 -34.65634865 35.08893346 -36.47363281 33.56762695 C-37.84885233 32.43480105 -39.22519173 31.30333354 -40.60253906 30.1730957 C-42.76249885 28.39901001 -44.9202339 26.62257306 -47.07104492 24.83740234 C-52.35565455 20.45423911 -57.72051016 16.18861813 -63.18432617 12.03076172 C-65.82073184 9.99804672 -67.60546108 8.36988456 -69.47363281 5.56762695 C-68.69324646 5.57873001 -67.91286011 5.58983307 -67.10882568 5.60127258 C-59.75205542 5.70148511 -52.39561635 5.77759626 -45.03834152 5.82668781 C-41.2558962 5.85277513 -37.4740151 5.88815521 -33.69189453 5.94482422 C-30.04140943 5.99917817 -26.39146675 6.02905401 -22.74060822 6.04201317 C-21.348284 6.05124728 -19.95598927 6.06928015 -18.56389618 6.09627724 C-16.61320485 6.13260049 -14.6619669 6.1346696 -12.7109375 6.13525391 C-11.60063171 6.14635696 -10.49032593 6.15746002 -9.34637451 6.16889954 C-4.67524438 5.19121941 -4.36916746 1.00259715 0 0 Z " fill="#79B503" transform="translate(184.4736328125,256.432373046875)"/>
<path d="M0 0 C0.71671875 -0.01224609 1.4334375 -0.02449219 2.171875 -0.03710938 C9.42096725 -0.05673688 15.65450228 1.39751509 22.125 4.8125 C22.9809375 5.25851563 23.836875 5.70453125 24.71875 6.1640625 C25.3478125 6.50179687 25.976875 6.83953125 26.625 7.1875 C26.625 7.5175 26.625 7.8475 26.625 8.1875 C24.83255859 7.94193359 24.83255859 7.94193359 23.00390625 7.69140625 C16.53082193 6.97217466 10.06710675 7.08004525 3.5625 7.125 C2.31533203 7.12951172 1.06816406 7.13402344 -0.21679688 7.13867188 C-3.26958221 7.15036837 -6.32226498 7.16675914 -9.375 7.1875 C-9.26779957 26.1544911 -9.1550451 45.12144141 -9.03566074 64.08835983 C-8.98035956 72.89483057 -8.92688265 81.70130537 -8.87768555 90.5078125 C-8.83480569 98.18267819 -8.78851808 105.85751442 -8.73812145 113.53233457 C-8.71155116 117.59687193 -8.68669884 121.66140357 -8.66592598 125.72597504 C-8.64632439 129.55083819 -8.62217008 133.37564543 -8.59450912 137.20045853 C-8.58515734 138.60491799 -8.57747535 140.00938972 -8.57158089 141.41386795 C-8.56328796 143.33052246 -8.54842252 145.24714518 -8.53321838 147.16375732 C-8.52676583 148.23672436 -8.52031328 149.30969139 -8.5136652 150.41517258 C-8.39245258 152.83857128 -8.07331239 154.87430853 -7.375 157.1875 C-10.43337286 156.13288867 -11.33858102 155.24684946 -13.0625 152.4375 C-15.14070151 147.29147722 -15.50031631 142.41263044 -15.50439453 136.90014648 C-15.50750641 135.65938354 -15.51061829 134.41862061 -15.51382446 133.14025879 C-15.51201564 131.7797035 -15.51000504 130.41914847 -15.5078125 129.05859375 C-15.5088305 127.61771621 -15.51017131 126.17683888 -15.5118103 124.73596191 C-15.51452092 120.84203995 -15.51002057 116.94815761 -15.50357056 113.05424118 C-15.50000161 110.62609488 -15.49838085 108.19795451 -15.49731445 105.76980591 C-15.47835814 70.90400252 -14.99682031 36.04717638 -14.375 1.1875 C-9.49785387 0.35261965 -4.9340122 0.00438969 0 0 Z " fill="#068DCC" transform="translate(175.375,75.8125)"/>
<path d="M0 0 C1.04414062 0.00064453 2.08828125 0.00128906 3.1640625 0.00195312 C10.84343259 0.04671629 10.84343259 0.04671629 13.125 1.1875 C12.795 2.8375 12.465 4.4875 12.125 6.1875 C10.80886719 6.21328125 9.49273437 6.2390625 8.13671875 6.265625 C-9.56843692 6.72678793 -9.56843692 6.72678793 -24.4453125 15.61328125 C-29.421848 21.09290913 -31.78472718 26.79516829 -33 34 C-33.433125 36.5678125 -33.433125 36.5678125 -33.875 39.1875 C-39.155 39.1875 -44.435 39.1875 -49.875 39.1875 C-49.875 37.8675 -49.875 36.5475 -49.875 35.1875 C-51.855 35.1875 -53.835 35.1875 -55.875 35.1875 C-55.875 34.8575 -55.875 34.5275 -55.875 34.1875 C-50.595 34.1875 -45.315 34.1875 -39.875 34.1875 C-39.813125 32.57875 -39.75125 30.97 -39.6875 29.3125 C-38.85935949 20.48656412 -35.20549866 13.63180223 -28.69140625 7.65234375 C-19.93295294 0.58907495 -10.84719001 -0.1301115 0 0 Z " fill="#DDA10B" transform="translate(100.875,75.8125)"/>
<path d="M0 0 C1.32257813 0.08701172 1.32257813 0.08701172 2.671875 0.17578125 C3.56390625 0.22089844 4.4559375 0.26601563 5.375 0.3125 C6.05046875 0.37050781 6.7259375 0.42851562 7.421875 0.48828125 C6.76144741 1.82471592 6.09330711 3.1573413 5.421875 4.48828125 C5.08558578 5.18317657 4.74929657 5.8780719 4.40281677 6.59402466 C2.26665344 10.18970154 0.67901269 12.16578152 -3.46530151 13.22894287 C-7.15972063 13.51662702 -10.775266 13.54434637 -14.48046875 13.48046875 C-15.84518237 13.48077911 -17.20989775 13.48376341 -18.57460022 13.48928833 C-21.42902989 13.49205053 -24.28144242 13.46705757 -27.13549805 13.42138672 C-30.77893088 13.36465981 -34.41900957 13.37007848 -38.06268978 13.39556694 C-40.87952398 13.40953672 -43.69559442 13.39384072 -46.51233101 13.36905289 C-48.50353286 13.35573256 -50.4948426 13.36427584 -52.48606873 13.3732605 C-62.5702271 13.16381219 -62.5702271 13.16381219 -66.95532227 9.49658203 C-69.578125 6.48828125 -69.578125 6.48828125 -69.578125 5.48828125 C-68.79773865 5.49938431 -68.01735229 5.51048737 -67.21331787 5.52192688 C-59.85654761 5.6221394 -52.50010854 5.69825056 -45.14283371 5.74734211 C-41.36038839 5.77342942 -37.57850729 5.8088095 -33.79638672 5.86547852 C-30.14590162 5.91983247 -26.49595894 5.94970831 -22.8451004 5.96266747 C-21.45277618 5.97190158 -20.06048145 5.98993445 -18.66838837 6.01693153 C-16.71769703 6.05325478 -14.76645909 6.05532389 -12.81542969 6.0559082 C-11.7051239 6.06701126 -10.59481812 6.07811432 -9.4508667 6.08955383 C-4.74785972 5.10520179 -4.47267708 0.84709793 0 0 Z " fill="#689E0A" transform="translate(184.578125,256.51171875)"/>
<path d="M0 0 C0.99 0 1.98 0 3 0 C3.6708712 1.6232687 4.33657029 3.24867578 5 4.875 C5.556875 6.23238281 5.556875 6.23238281 6.125 7.6171875 C7 10 7 10 7 12 C11.29 12 15.58 12 20 12 C20 12.33 20 12.66 20 13 C13.07 13 6.14 13 -1 13 C-0.34 11.68 0.32 10.36 1 9 C1.02977744 6.62698611 1.02977744 6.62698611 0.625 4.25 C0.51414063 3.45078125 0.40328125 2.6515625 0.2890625 1.828125 C0.19367188 1.22484375 0.09828125 0.6215625 0 0 Z " fill="#1391C9" transform="translate(184,244)"/>
</svg>
